<svg width="74" height="92" viewBox="0 0 74 92" fill="none" xmlns="http://www.w3.org/2000/svg">
<mask id="mask0_17_638" style="mask-type:luminance" maskUnits="userSpaceOnUse" x="5" y="6" width="64" height="79">
<path d="M5.86172 84.9001H68.8617V6.42008H5.86172V84.9001Z" fill="white"/>
</mask>
<g mask="url(#mask0_17_638)">
<path fill-rule="evenodd" clip-rule="evenodd" d="M100.774 24.5667C100.357 18.9235 98.5993 20.6375 94.2962 18.9236C90.8263 18.2543 90.5336 15.7463 93.9615 15.6217C100.148 16.0796 103.24 16.1636 108.382 15.3696C110.723 15.7463 111.726 16.7083 112.602 18.9642C116.909 28.0773 123.177 41.7455 127.484 50.8571C128.235 52.4885 128.654 52.8217 129.616 50.7311L142.322 18.2542C143.743 15.4957 145.289 14.8277 149.721 15.2464C157.369 15.3696 159.25 15.1596 163.012 14.7437C166.272 14.8697 166.064 17.3762 162.846 18.2542C157.913 18.2962 155.321 19.9668 154.569 23.6454L155.28 60.9322C156.074 66.49 158.959 66.658 164.141 67.9966C166.481 69.0413 165.98 70.6712 163.973 71.2159C153.148 69.9613 149.385 70.0424 138.643 71.0899C135.55 71.3825 135.341 68.7066 138.685 67.9966C142.657 67.1187 143.661 66.4059 144.537 64.3167L143.743 28.3699C143.619 26.9486 142.739 26.9486 142.196 28.6219L127.024 66.5319C125.602 69.7512 124.975 69.7512 123.429 67.2447L105.498 28.4119C104.954 27.0733 104.286 27.4934 104.202 28.3279L104.37 62.6027C104.87 66.574 107.63 66.826 113.229 68.5805C114.819 69.0833 114.903 70.4191 113.606 71.2551C102.655 70.3351 100.9 70.3351 90.7423 71.6318C89.1544 71.6318 88.4024 69.2905 90.8683 68.9572C96.2608 67.4127 97.7227 67.3287 98.5167 64.2327L100.774 24.5667ZM162.469 52.0697C164.098 35.685 177.685 31.8384 184.662 31.7964C192.941 32.0485 195.573 34.765 195.655 37.5236C195.739 40.2835 193.777 41.7454 191.644 41.1587C187.089 39.9909 187.966 35.1809 181.907 34.807C175.049 35.8096 170.912 43.5014 172.084 52.6957C173.251 61.8928 182.156 68.7486 193.025 63.1474C195.655 62.5607 195.866 64.7354 193.735 66.2393C173.755 78.5296 161.633 61.0148 162.469 52.0697ZM200.044 41.9555C201.884 22.2675 214.509 14.031 232.271 12.5691C250.998 12.6951 253.673 13.9497 253.422 24.3987C253.545 28.1613 251.04 29.0378 249.284 24.774C247.276 20.9302 245.603 18.715 240.842 16.7503C224.705 13.1138 212.755 23.4801 212.042 41.1181C210.914 65.99 238.751 73.2617 244.519 63.9834C245.732 61.5595 245.732 55.121 245.564 49.8139C244.562 46.3034 241.216 46.6366 237.957 46.5078C234.445 46.7599 233.192 42.7887 237.915 42.8307C242.472 42.8307 251.25 43.2493 262.535 42.2061C265.879 42.3321 266.131 45.382 262.034 45.8427C260.279 46.176 256.556 46.134 256.056 49.0592C255.636 64.1907 259.148 65.6539 247.737 69.7932C233.192 73.2197 217.517 71.6318 208.655 63.0634C204.686 59.5529 199.71 51.4859 200.044 41.9555ZM272.565 46.218C272.358 43.9621 272.067 42.2062 269.474 41.4528C267.636 41.2848 266.754 39.6142 269.39 38.6102C274.656 36.8962 275.409 36.6036 279.463 33.3424C280.718 32.6772 282.178 33.2163 281.47 35.475C281.177 37.1876 281.221 37.9843 281.093 39.8229L281.137 62.8968C281.344 66.6579 284.269 67.2867 286.15 68.0359C288.03 68.7906 288.197 71.0058 285.983 71.0478C277.79 69.9164 275.993 69.7932 268.096 71.3825C265.459 71.4231 264.874 69.4193 268.133 68.2459C271.397 67.0766 272.484 66.5319 272.648 63.7313L272.565 46.218ZM296.265 63.6473C296.057 65.738 295.096 67.1187 291.167 68.2039C288.074 69.2093 288.45 70.8392 291.584 70.9638C300.028 69.7512 302.663 69.9612 310.229 70.7972C313.195 70.7552 312.692 68.8326 310.852 67.9546C306.424 66.2392 305.712 66.1973 304.835 61.8116L304.499 17.5023C304.499 14.9524 305.462 11.9823 302.744 12.6531C297.687 14.6597 297.269 14.8278 292.671 16.4143C290.247 17.4603 291.167 18.6309 292.921 19.2149C295.386 20.2189 295.596 21.7242 295.722 23.5221L296.265 63.6473ZM322.264 63.8994C322.054 65.99 321.094 67.3707 317.166 68.4546C314.071 69.4586 314.448 71.0899 317.585 71.2159C326.028 70.0033 328.659 70.2105 336.225 71.0478C339.192 71.0058 338.693 69.0833 336.853 68.2039C332.421 66.4899 331.711 66.4479 330.834 62.0608L330.499 17.7515C330.499 15.2016 331.46 12.2344 328.744 12.9051C323.686 14.9103 323.268 15.0784 318.67 16.6663C316.246 17.7109 317.166 18.8816 318.921 19.4669C321.388 20.4695 321.596 21.9734 321.721 23.77L322.264 63.8994ZM277.08 13.3238C279.67 13.3238 281.845 15.4537 281.845 18.0862C281.845 20.7215 279.67 22.8948 277.08 22.8948C274.489 22.8948 272.358 20.7215 272.358 18.0862C272.358 15.4537 274.489 13.3238 277.08 13.3238ZM7.6786 42.5048C4.86262 32.4816 6.51078 23.2074 6.51078 11.9869C16.5424 7.00191 26.4761 6.54963 37.2401 6.54963C46.5492 6.54963 59.7497 7.75106 67.7005 11.9729C68.5155 22.5479 68.9846 31.857 66.268 43.8729C63.5543 55.8901 55.6524 72.4864 37.6363 84.7501C17.9749 71.8632 11.5476 56.285 7.6786 42.5048Z" fill="#ED1B2F"/>
</g>
<mask id="mask1_17_638" style="mask-type:luminance" maskUnits="userSpaceOnUse" x="3" y="4" width="68" height="84">
<path d="M3.70233 87.4251H70.3023V4.62508H3.70233V87.4251Z" fill="white"/>
</mask>
<g mask="url(#mask1_17_638)">
<path fill-rule="evenodd" clip-rule="evenodd" d="M17.0713 27.7963L7.38553 38.3293C9.55737 48.4296 15.5898 69.5935 37.5645 83.8751C59.3404 68.8864 65.1768 48.3456 66.4931 38.0997L57.0775 27.7712L46.651 38.3363L37.0464 27.8621L27.4754 38.2061L17.0713 27.7963ZM14.2397 19.6536L13.5003 20.7053L15.1555 20.547L14.2397 19.6536ZM16.994 18.4873L18.1857 20.5149H15.8542L16.994 18.4873ZM13.4611 22.219C13.7664 22.219 14.0156 22.4654 14.0156 22.7819C14.0156 23.0843 13.7664 23.3364 13.4611 23.3364C13.1572 23.3364 12.9122 23.0843 12.9122 22.7819C12.9122 22.4654 13.1572 22.219 13.4611 22.219ZM15.2198 21.8564C15.373 21.8564 15.5199 21.9171 15.6283 22.0252C15.7367 22.1334 15.7978 22.2801 15.7982 22.4333C15.7982 22.7679 15.5405 23.013 15.2198 23.013C14.9328 23.013 14.6541 22.7679 14.6541 22.4333C14.6541 22.1168 14.9328 21.8564 15.2198 21.8564ZM17.0024 21.7583C17.3119 21.7583 17.5738 22.0146 17.5738 22.331C17.5738 22.6475 17.3119 22.9079 17.0024 22.9079C16.7028 22.9079 16.4325 22.6475 16.4325 22.331C16.4325 22.0146 16.7028 21.7583 17.0024 21.7583ZM17.0094 24.9468C14.8166 24.9524 13.1825 24.7381 13.1825 24.4651C13.1825 24.1934 14.804 23.919 17.0094 23.9134C19.2163 23.912 20.8365 24.1878 20.8365 24.4581C20.8365 24.7283 19.2023 24.9426 17.0094 24.9468ZM20.6068 22.219C20.3043 22.219 20.0508 22.4654 20.0508 22.7819C20.0508 23.0843 20.3043 23.3364 20.6068 23.3364C20.9079 23.3364 21.1543 23.0843 21.1543 22.7819C21.1543 22.4654 20.9079 22.219 20.6068 22.219ZM18.8494 21.8564C18.5246 21.8564 18.2627 22.1168 18.2627 22.4333C18.2627 22.7679 18.5246 23.013 18.8494 23.013C19.1421 23.013 19.4123 22.7679 19.4123 22.4333C19.4123 22.1168 19.1421 21.8564 18.8494 21.8564ZM19.8296 19.6536L20.5661 20.7053L18.9111 20.547L19.8296 19.6536ZM17.0081 23.4568C18.1507 23.4526 19.9388 23.5689 21.0171 23.9064C21.2817 23.3463 21.7508 22.4081 22.0056 22.0286C21.0829 21.4783 18.2501 21.313 17.0108 21.3186C15.7715 21.32 12.9374 21.4852 12.016 22.037C12.2695 22.415 12.7413 23.3547 12.999 23.9134C14.0786 23.5759 15.8654 23.4596 17.0081 23.4568ZM17.0081 20.8229C18.5764 20.8173 21.5617 21.0553 22.2689 21.5678C22.5167 21.1715 24.3259 17.7829 24.4996 16.8111C23.8484 16.5646 23.2477 17.4216 22.9859 17.486C22.5238 16.7719 22.0701 16.7719 21.8488 16.8041C21.4609 16.9189 21.6682 17.0505 21.8236 17.0995C24.2601 19.158 20.6544 21.1996 20.0285 19.1328C16.9282 19.389 17.7334 16.8937 18.5316 16.5814C19.0581 16.4246 18.6309 16.3434 18.4657 16.286C18.2683 16.2454 17.8832 16.2173 17.8328 16.3826C17.8832 15.1559 17.7334 14.2094 17.0011 13.7991C16.2659 14.2108 16.1329 15.1657 16.1847 16.3924C16.1329 16.2272 15.752 16.251 15.5532 16.293C15.3907 16.3504 14.9622 16.4316 15.4845 16.5898C16.2869 16.9021 17.0907 19.3974 13.989 19.1412C13.3631 21.2066 9.76154 19.165 12.1924 17.1065C12.3507 17.0603 12.5608 16.9259 12.1757 16.8097C11.9432 16.7789 11.5007 16.7789 11.0344 17.493C10.7698 17.4286 10.169 16.5716 9.51647 16.8181C9.69711 17.7913 11.5063 21.1786 11.7472 21.5735C12.4571 21.0624 15.4397 20.8243 17.0081 20.8229ZM54.2951 19.6536L53.5529 20.7053L55.208 20.547L54.2951 19.6536ZM57.0466 18.4873L58.2411 20.5149H55.9067L57.0466 18.4873ZM53.5151 22.219C53.819 22.219 54.0682 22.4654 54.0682 22.7819C54.0682 23.0843 53.819 23.3364 53.5151 23.3364C53.2112 23.3364 52.9662 23.0843 52.9662 22.7819C52.9662 22.4654 53.2112 22.219 53.5151 22.219ZM55.2738 21.8564C55.427 21.8564 55.5739 21.9171 55.6823 22.0252C55.7907 22.1334 55.8518 22.2801 55.8522 22.4333C55.8522 22.7679 55.5945 23.013 55.2738 23.013C54.9854 23.013 54.7081 22.7679 54.7081 22.4333C54.7081 22.1168 54.9854 21.8564 55.2738 21.8564ZM57.0564 21.7583C57.3659 21.7583 57.6277 22.0146 57.6277 22.331C57.6277 22.6475 57.3659 22.9079 57.0564 22.9079C56.7554 22.9079 56.4864 22.6475 56.4864 22.331C56.4864 22.0146 56.7554 21.7583 57.0564 21.7583ZM57.0648 24.9468C54.8705 24.9524 53.2364 24.7381 53.2364 24.4651C53.2364 24.1934 54.8579 23.919 57.0648 23.9134C59.2688 23.912 60.889 24.1878 60.889 24.4581C60.889 24.7283 59.2562 24.9426 57.0648 24.9468ZM60.6607 22.219C60.3597 22.219 60.1049 22.4654 60.1049 22.7819C60.1049 23.0843 60.3597 23.3364 60.6607 23.3364C60.9604 23.3364 61.2069 23.0843 61.2069 22.7819C61.2069 22.4654 60.9604 22.219 60.6607 22.219ZM58.9034 21.8564C58.5771 21.8564 58.3153 22.1168 58.3153 22.4333C58.3153 22.7679 58.5771 23.013 58.9034 23.013C59.196 23.013 59.4649 22.7679 59.4649 22.4333C59.4649 22.1168 59.196 21.8564 58.9034 21.8564ZM59.8836 19.6536L60.6201 20.7053L58.965 20.547L59.8836 19.6536ZM57.0606 23.4568C58.2032 23.4526 59.9928 23.5689 61.0711 23.9064C61.3343 23.3463 61.8034 22.4081 62.0596 22.0286C61.1369 21.4783 58.3041 21.313 57.0648 21.3186C55.8241 21.32 52.9913 21.4852 52.0699 22.037C52.322 22.415 52.7953 23.3547 53.053 23.9134C54.1326 23.5759 55.9194 23.4596 57.0606 23.4568ZM57.062 20.8229C58.6289 20.8173 61.6129 21.0553 62.3242 21.5678C62.5707 21.1715 64.3799 17.7829 64.5521 16.8111C63.9024 16.5646 63.3017 17.4216 63.037 17.486C62.5777 16.7719 62.1241 16.7719 61.9028 16.8041C61.5149 16.9189 61.7222 17.0505 61.8776 17.0995C64.3141 19.158 60.7098 21.1996 60.0838 19.1328C56.9808 19.389 57.7887 16.8937 58.5869 16.5814C59.112 16.4246 58.6835 16.3434 58.5197 16.286C58.3223 16.2454 57.9358 16.2173 57.8854 16.3826C57.9358 15.1559 57.7887 14.2094 57.055 13.7991C56.3198 14.2108 56.1868 15.1657 56.2372 16.3924C56.1868 16.2272 55.8046 16.251 55.6057 16.293C55.4447 16.3504 55.0162 16.4316 55.5385 16.5898C56.3409 16.9021 57.1418 19.3974 54.0429 19.1412C53.4156 21.2066 49.8155 19.165 52.245 17.1065C52.4046 17.0603 52.6161 16.9259 52.2282 16.8097C51.9972 16.7789 51.5561 16.7789 51.087 17.493C50.8237 17.4286 50.223 16.5716 49.5705 16.8181C49.7497 17.7913 51.5617 21.1786 51.8012 21.5735C52.5125 21.0624 55.4937 20.8243 57.062 20.8229Z" fill="white"/>
<path fill-rule="evenodd" clip-rule="evenodd" d="M18.1411 42.5896C18.3217 42.5896 18.4688 42.7338 18.4688 42.9158C18.4688 43.0951 18.3217 43.2407 18.1411 43.2407C17.9619 43.2407 17.8135 43.0951 17.8135 42.9158C17.8135 42.7338 17.9619 42.5896 18.1411 42.5896ZM15.7956 47.2917C15.9441 46.9711 16.2899 45.9811 16.437 45.6618C16.2899 45.3159 15.944 44.9939 15.6472 44.9939C15.7956 44.6732 16.3557 44.2517 16.2479 43.9647C16.1415 43.6762 15.8853 43.7028 15.3098 43.4045C15.5156 42.9942 15.9357 42.78 16.2409 42.7226C16.5448 42.6638 16.5518 42.2129 17.0881 41.9244C17.6231 41.6346 18.1103 41.5604 18.8888 41.6024C19.6702 41.6444 22.2398 42.3515 21.5718 45.3159C23.0533 48.2789 28.1896 44.3259 30.0183 44.3259C29.6725 44.9939 29.1782 45.6618 28.8575 46.3018C29.3518 46.649 30.0184 46.3018 30.5113 46.3018C30.0184 47.9317 29.0312 48.5996 28.1896 49.2662C29.0312 51.9057 32.0754 50.8863 34.8074 50.574C34.4699 51.48 33.3259 51.5612 32.8316 52.2263C33.7613 53.2093 34.8074 54.5242 35.4739 55.8573C34.2473 55.0437 31.6707 54.205 30.832 53.8843C29.1782 53.2136 25.8693 53.2136 24.2142 53.8843C24.5601 54.5242 25.2027 54.8715 25.7223 55.1922C24.8807 56.8445 23.2269 55.8573 22.2397 55.5366C21.3996 56.1794 19.8537 56.2284 19.4252 55.8573C19.4252 55.8573 19.4252 55.4456 19.9181 55.0857C20.2556 54.6152 18.9308 54.5242 18.5864 53.8843C18.5934 53.2738 19.2278 53.8745 19.5975 53.2136C18.7587 51.5612 15.3027 51.2391 15.7956 47.2917ZM41.4726 43.0643C41.6574 43.0643 41.8073 43.2183 41.8073 43.399C41.8075 43.4431 41.799 43.4868 41.7822 43.5277C41.7655 43.5685 41.7409 43.6057 41.7098 43.637C41.6788 43.6683 41.6417 43.6933 41.601 43.7103C41.5603 43.7274 41.5167 43.7362 41.4726 43.7364C41.4285 43.7362 41.3847 43.7274 41.344 43.7103C41.3033 43.6933 41.2664 43.6683 41.2353 43.637C41.2043 43.6057 41.1797 43.5685 41.1629 43.5277C41.1462 43.4868 41.1377 43.4431 41.1379 43.399C41.1379 43.2183 41.2877 43.0643 41.4726 43.0643ZM39.1719 47.7664C39.3203 47.4457 39.6662 46.46 39.8146 46.1393C39.6662 45.792 39.3203 45.4714 39.0235 45.4714C39.1719 45.1507 39.732 44.7306 39.6242 44.4422C39.5178 44.1537 39.2629 44.1789 38.686 43.8834C38.8919 43.4717 39.312 43.2575 39.6158 43.2001C39.9211 43.1441 39.9295 42.689 40.463 42.4034C40.9993 42.1149 41.4852 42.0407 42.2651 42.0827C43.0465 42.1233 45.616 42.8318 44.9495 45.792C46.431 48.7565 51.5659 44.8063 53.3932 44.8063C53.0474 45.4714 52.5545 46.1393 52.2324 46.7793C52.7281 47.1265 53.3932 46.7793 53.8875 46.7793C53.3932 48.4092 52.406 49.0771 51.5659 49.7422C52.406 52.3846 55.4516 51.3652 58.1822 51.053C57.8447 51.9561 56.7021 52.0401 56.2092 52.7053C57.1376 53.6855 58.1822 55.0017 58.8501 56.3348C57.6235 55.5198 55.0469 54.6796 54.2082 54.359C52.5544 53.6924 49.2456 53.6924 47.5918 54.359C47.9363 55.0017 48.5777 55.3476 49.0972 55.6669C48.257 57.322 46.6032 56.3348 45.616 56.0141C44.7758 56.6569 43.2285 56.7059 42.8014 56.3348C42.8014 56.3348 42.8015 55.9231 43.2958 55.5605C43.6332 55.0942 42.3072 55.0017 41.9613 54.359C41.9697 53.7513 42.604 54.352 42.9737 53.6924C42.135 52.0401 38.6776 51.7194 39.1719 47.7664ZM30.3004 59.615C30.4698 59.615 30.607 59.755 30.607 59.9217C30.607 60.0897 30.4698 60.2297 30.3004 60.2297C30.1309 60.2297 29.9937 60.0897 29.9937 59.9217C29.9937 59.755 30.1309 59.615 30.3004 59.615ZM27.9745 64.3171C28.1243 63.9965 28.4702 63.0093 28.6173 62.6872C28.4702 62.3413 28.1243 62.0221 27.8275 62.0221C27.9745 61.7 28.5346 61.2813 28.4282 60.9928C28.3204 60.7044 28.0656 60.7282 27.4901 60.4313C27.6959 60.0196 28.1145 59.8054 28.4198 59.7494C28.725 59.692 28.7321 59.2397 29.267 58.9498C29.8019 58.6628 30.2892 58.5886 31.0691 58.6278C31.8491 58.6698 34.4201 59.3769 33.7521 62.3413C35.235 65.3043 40.3699 61.3541 42.1973 61.3541C41.8528 62.022 41.357 62.6872 41.0364 63.3299C41.5307 63.6744 42.1972 63.3299 42.6915 63.3299C42.1972 64.9598 41.2101 65.625 40.3699 66.2915C41.2101 68.9352 44.2542 67.9131 46.9876 67.6022C46.6487 68.5068 45.5062 68.588 45.0119 69.256C45.9416 70.2348 46.9876 71.5524 47.6528 72.8855C46.4275 72.0705 43.851 71.2304 43.0108 70.9097C41.3571 70.2432 38.0482 70.2432 36.393 70.9097C36.7403 71.5524 37.3817 71.8969 37.9012 72.2176C37.061 73.8727 35.4058 72.8855 34.42 72.5649C33.5785 73.2062 32.0325 73.2552 31.6054 72.8855C31.6054 72.8855 31.6054 72.4738 32.0983 72.1112C32.4358 71.6407 31.1112 71.5524 30.7653 70.9097C30.7737 70.2992 31.408 70.8999 31.7777 70.2431C30.9389 68.588 27.4816 68.2673 27.9745 64.3171Z" fill="#ED1B2F"/>
<path fill-rule="evenodd" clip-rule="evenodd" d="M30.3987 10.8391C30.3987 10.8391 31.8564 11.4468 33.1811 10.8713C34.622 10.2453 35.9201 10.0311 36.9591 10.4918V23.1504C36.0615 22.7219 35.0728 22.8871 33.6753 23.2246C32.2751 23.5621 31.4517 23.5467 30.4155 23.3744L30.3987 10.8391ZM29.9702 10.9455L28.8766 11.9817V24.5339L29.9702 23.5047V10.9455ZM29.2042 24.7901L30.3567 23.7749C31.2136 24.1236 33.0634 23.7358 33.9456 23.5691C35.4187 23.2905 36.0208 23.1084 36.9898 23.5467C36.4633 23.8519 36.1343 24.2777 36.1595 24.7986L29.2042 24.7901ZM45.2796 24.7804L44.1272 23.7693C43.2702 24.1138 41.4189 23.7288 40.5382 23.5621C39.0651 23.2807 38.4643 23.1014 37.4925 23.5369C38.0205 23.8422 38.3495 24.2706 38.3243 24.7901L45.2796 24.7804ZM44.4394 10.8461L45.5344 11.8837V24.4359L44.4394 23.4067V10.8461ZM44.0109 10.8391C44.0109 10.8391 42.5714 11.4468 41.2468 10.8713C39.8059 10.2453 38.505 10.0311 37.4688 10.4918V23.1504C38.365 22.7219 39.3521 22.8871 40.7524 23.2246C42.1499 23.5621 42.9747 23.5467 44.0109 23.3744V10.8391ZM37.2209 23.8169C36.7518 24.2384 36.5726 24.3939 36.6776 24.8126H37.8566C37.9126 24.3519 37.739 24.1726 37.2209 23.8169Z" fill="white"/>
<path fill-rule="evenodd" clip-rule="evenodd" d="M34.5136 20.0635C34.5136 20.3688 34.62 20.6712 34.9827 20.6712C35.2698 20.6712 35.4265 20.443 35.4265 20.1363C35.4265 19.9571 35.393 19.5861 34.9827 19.5861C34.8007 19.5861 34.5542 19.6518 34.5136 20.0635ZM34.1761 20.1867C34.1425 19.726 34.431 19.2416 34.9827 19.2654C35.4098 19.2654 35.8061 19.5608 35.764 20.1545C35.7472 20.5312 35.5498 20.9695 34.9659 20.9849C34.3721 20.9695 34.1929 20.4892 34.1761 20.1867ZM32.4636 21.1082V19.4544H32.801L33.4844 20.5732V19.4544H33.8218V21.1082H33.4844L32.8178 19.9893V21.1082H32.4636ZM31.7228 19.6603H32.0771V21.3126H31.7228V19.6603ZM34.48 17.3302V15.675H34.9827L35.2879 16.9283L35.5918 15.675H36.0847V17.3302H35.7472V16.0125L35.4602 17.3302H35.1045L34.8174 16.0125V17.3302H34.48ZM32.9089 16.5166C32.9089 16.8205 33.0153 17.1229 33.378 17.1229C33.665 17.1229 33.8218 16.8947 33.8218 16.5908C33.8218 16.4088 33.7883 16.0391 33.378 16.0391C33.1959 16.0391 32.9495 16.1035 32.9089 16.5166ZM32.57 16.6399C32.5392 16.1792 32.8263 15.6947 33.378 15.7171C33.8065 15.7171 34.1999 16.0125 34.1593 16.6062C34.1425 16.9843 33.9451 17.4212 33.3598 17.438C32.7675 17.4212 32.5868 16.9437 32.57 16.6399ZM31.3111 17.438H31.6486C32.1009 17.438 32.1345 16.3598 31.6332 16.3598H31.3111V17.438ZM31.7802 17.7195H30.9736V16.0615H31.7551C32.6358 16.1693 32.4551 17.6355 31.7802 17.7195ZM33.0083 14.0227V12.3676H33.3443L34.0277 13.4878V12.3676H34.3651V14.0227H34.0277L33.3598 12.901V14.0227H33.0083ZM32.2745 12.5664H32.6288V14.2188H32.2745V12.5664ZM41.0641 20.359C41.0641 20.6642 41.1705 20.9695 41.5332 20.9695C41.8203 20.9695 41.9785 20.7357 41.9785 20.4332C41.9785 20.2526 41.9449 19.8815 41.5332 19.8815C41.3526 19.8815 41.1047 19.9501 41.0641 20.359ZM40.7267 20.4822C40.6945 20.0215 40.9815 19.5357 41.5332 19.5609C41.9617 19.5609 42.3552 19.8563 42.316 20.45C42.2992 20.8295 42.1003 21.265 41.5164 21.2804C40.9241 21.265 40.7435 20.7875 40.7267 20.4822ZM39.3613 20.7133H39.6975C40.1512 20.7133 40.1833 19.635 39.682 19.635H39.3613V20.7133ZM39.8305 20.9919H39.0226V19.3396H39.8053C40.686 19.4474 40.504 20.9107 39.8305 20.9919ZM41.0809 16.0615H41.4352V17.7195H41.0809V16.0615ZM39.5154 17.5374V15.8808H40.6861V16.1791H39.8627V16.5559H40.5936V16.8443H39.8627V17.5374H39.5154ZM41.6565 14.3994V12.747H41.9939L42.6773 13.8644V12.747H43.0147V14.3994H42.6773L42.0107 13.2833V14.3994H41.6565ZM40.0517 13.3379C40.0517 13.6432 40.1582 13.9485 40.5222 13.9485C40.8093 13.9485 40.9647 13.716 40.9647 13.4136C40.9647 13.2315 40.9325 12.8619 40.5222 12.8619C40.3388 12.8619 40.0938 12.9291 40.0517 13.3379ZM39.7142 13.4626C39.682 13.0033 39.9691 12.5146 40.5222 12.5398C40.9493 12.5398 41.3428 12.8353 41.3022 13.4318C41.2868 13.8085 41.088 14.2467 40.504 14.2607C39.9117 14.2467 39.731 13.7664 39.7142 13.4626ZM38.0941 13.1825C38.1095 12.663 38.398 12.3676 38.8671 12.3676C39.2788 12.3676 39.542 12.5986 39.5574 12.9683H39.22C39.22 12.8451 39.1289 12.663 38.8825 12.663C38.629 12.663 38.4302 12.9011 38.4302 13.2568C38.4302 13.5102 38.5786 13.7931 38.8419 13.7931C39.0225 13.7931 39.2046 13.7245 39.22 13.471H39.5574C39.5994 13.7581 39.2788 14.1039 38.8671 14.1039C38.4302 14.1039 38.0759 13.793 38.0941 13.1825Z" fill="#ED1B2F"/>
</g>
</svg>
