<svg width="78" height="97" viewBox="0 0 78 97" fill="none" xmlns="http://www.w3.org/2000/svg">
<path d="M38.8891 52.6064L24.138 32.238V47.0529H30.0388V61.6817H2.75V47.0529H8.28133V24.2746H2.75V9.64453H24.1853L38.9614 30.1984L53.7693 9.64453H75.203V24.2746H69.671V47.0529H75.203V61.6817H47.9158V47.0529H53.8148V32.2379L38.8891 52.6064Z" fill="#FFCB05"/>
<path d="M41.6714 67.9388C40.5688 67.9388 39.6195 68.6125 39.6195 69.8151C39.6195 71.063 40.6136 71.4727 41.1429 71.6638C41.3981 71.7639 41.6715 71.8457 41.9279 71.9452C42.2375 72.074 42.939 72.3644 42.939 73.0927C42.939 73.7856 42.3382 74.0762 41.6532 74.0762C40.6874 74.0762 40.0938 73.5114 39.7378 72.4651L39.4097 72.5004L39.5032 73.7672L40.0393 74.1592C40.2938 74.3228 40.8322 74.6686 41.7076 74.6686C43.0659 74.6686 43.9779 73.7498 43.9779 72.6387C43.9779 71.8646 43.5582 71.3 43.0478 70.999C42.7841 70.8446 42.4838 70.7433 42.1187 70.6261C41.3983 70.3886 40.6411 70.1322 40.6411 69.3679C40.6411 68.8581 41.0419 68.5304 41.7257 68.5304C42.2366 68.5304 42.6743 68.7165 42.9839 69.117C43.2391 69.4552 43.3219 69.6502 43.4312 70.069L43.7489 70.006L43.54 68.0935L43.1489 68.3749C42.6025 68.0288 42.1006 67.9388 41.6714 67.9388ZM66.7493 67.9837C64.6815 67.9739 63.5051 69.559 63.5051 71.3166C63.5051 73.3666 64.9674 74.7143 66.8361 74.7143C68.5412 74.7143 70.0545 73.5489 70.0545 71.3261C70.0545 69.3768 68.6962 67.9929 66.7493 67.9837ZM54.1234 68.0657V68.4205C54.7431 68.4572 54.752 68.4751 55.2166 69.1674L56.9289 71.8183V72.9467C56.9203 73.6488 56.9202 73.8125 56.7743 73.9578C56.6461 74.0854 56.4552 74.1041 55.9539 74.1591V74.5054H59.1237V74.1591C58.1677 74.1041 58.1583 74.0136 58.1583 72.8475V71.5074L59.1599 69.8323C59.898 68.6303 60.0887 68.4394 60.7358 68.4205V68.0657H58.2223V68.4205C58.6686 68.448 58.932 68.4573 58.932 68.7668C58.932 68.9133 58.8421 69.1044 58.6773 69.4231L57.7673 71.0237L56.7829 69.4135C56.6193 69.14 56.5015 68.9396 56.5015 68.7668C56.5015 68.4573 56.8014 68.4395 57.4754 68.4205V68.0657L54.1234 68.0657ZM33.3687 68.0724V68.4196C33.8968 68.4642 34.0704 68.5285 34.1156 68.8832C34.1431 69.0926 34.1519 69.365 34.1519 70.1385V72.4651C34.1519 72.7294 34.1515 73.0287 34.1423 73.293C34.1332 73.9841 34.0611 74.0946 33.3687 74.1477V74.5054H36.0539V74.1477C35.2798 74.1312 35.279 73.9323 35.2698 72.4574L35.2708 71.6219C35.8813 71.6316 36.0085 71.5812 36.3906 72.3907L36.7465 73.1471C37.2569 74.2301 37.7578 74.6495 38.9691 74.6495C39.1149 74.6495 39.2504 74.6411 39.3878 74.6314V74.4129C38.8683 74.3415 38.6505 74.1671 38.2403 73.4113L37.1013 71.431C37.9848 71.157 38.3672 70.3509 38.3672 69.7312C38.3672 68.8393 37.8668 68.0838 36.282 68.0838L33.3687 68.0724ZM27.7151 68.0733V68.4196C28.1797 68.466 28.3798 68.4928 28.4439 68.7926C28.4891 68.9928 28.4983 69.703 28.4983 69.9582V72.219C28.4983 72.3917 28.4893 73.1662 28.4802 73.3207C28.4619 74.0227 28.38 74.0855 27.7152 74.1496V74.5054H32.6162C32.6162 74.0414 32.6976 73.2754 32.7526 72.839H32.4425C32.2234 73.9867 31.5771 73.9302 30.6473 73.9302C29.7914 73.9302 29.619 73.7029 29.619 73.2835V71.4854H30.3115C31.104 71.4854 31.3313 71.5533 31.3313 72.2743H31.6413V70.1509H31.3313C31.2678 70.7248 31.1492 70.9121 30.3201 70.9121H29.619V68.6466H30.4117C31.5038 68.6466 31.8956 68.7292 32.0409 69.6034H32.3328L32.2956 68.0733H27.7151ZM47.7362 68.0733L47.6819 69.8772H48.0195C48.0739 68.7295 48.5555 68.7563 49.2844 68.7563H50.0866V73.4934C50.0866 74.0043 49.923 74.2235 49.3302 74.2326V74.5055H51.9906L51.9896 74.2326C51.3974 74.2235 51.2341 74.0043 51.2341 73.4934V68.7564H52.0354C52.7643 68.7564 53.2469 68.7295 53.3012 69.8772H53.6389L53.5835 68.0733H47.7362ZM2.75 68.0753V68.4205C3.23292 68.448 3.43302 68.5307 3.48737 68.9318C3.50569 69.0955 3.50593 69.4036 3.51507 70.0966V71.5531C3.51507 72.5922 3.52435 73.5584 4.48042 74.205C5.08173 74.6061 5.81002 74.659 6.16596 74.659C6.61162 74.659 8.29769 74.5691 8.7348 72.839C8.84405 72.3744 8.87008 71.8904 8.88835 71.3995C8.89753 71.1266 8.97079 69.3412 8.97992 69.1856C9.01655 68.5494 9.14422 68.4119 9.74494 68.4205V68.0753H7.29438V68.4205C7.86883 68.4669 8.1687 68.4843 8.20533 69.0673C8.21452 69.2773 8.21491 70.0422 8.21491 70.2797C8.21491 71.0263 8.20602 72.1552 8.02409 72.7559C7.80554 73.5117 7.29995 73.9903 6.38056 73.9903C6.09793 73.9903 5.53823 73.9286 5.2092 73.4494C4.79651 72.8457 4.78186 72.1732 4.78186 71.39V69.878C4.79104 68.5118 4.79016 68.4846 5.64606 68.4205V68.0752L2.75 68.0753ZM10.2312 68.0753V68.4205C10.6597 68.4572 10.8053 68.5216 11.1612 68.8489C11.1521 69.5143 11.1244 73.3296 11.0334 73.7577C10.9608 74.1221 10.7599 74.1318 10.2312 74.1592V74.5055H12.8544V74.1592C11.8709 74.0598 11.7985 74.0231 11.7985 72.9841V69.6493L14.3386 72.7838C14.6299 73.1391 14.9222 73.5039 15.2134 73.8684L15.7866 74.5876H16.1701L16.2617 69.6236C16.2708 68.576 16.3338 68.43 17.0353 68.4207V68.0754H14.5028V68.4207C15.5235 68.4574 15.5505 68.5123 15.5596 69.533V72.4109L13.7654 70.1874C12.8185 69.0128 12.6998 68.8398 12.1619 68.0754L10.2312 68.0753ZM17.728 68.0753V68.4205C18.4838 68.5304 18.4839 68.5657 18.493 69.9057V73.3302C18.4839 74.0048 18.3556 74.0767 17.728 74.1591V74.5054H20.3979V74.1591C19.898 74.1225 19.7153 74.0316 19.6701 73.6402C19.6518 73.4485 19.6425 72.7286 19.6425 72.5003V69.9057C19.6425 68.5303 19.6422 68.4944 20.398 68.4205V68.0753H17.728ZM21.0103 68.0753V68.4205C21.6569 68.5219 21.7112 68.6673 22.1483 69.8876L23.9063 74.6332H24.2526L26.211 69.9592C26.7391 68.6851 26.8215 68.5121 27.4406 68.4205V68.0753H25.1904V68.4205C25.5908 68.4297 26.047 68.4476 26.047 68.9127C26.047 69.0764 25.9377 69.3677 25.8552 69.5948L24.5446 72.9744L23.4238 69.7054C23.251 69.1676 23.2044 69.0126 23.2044 68.8307C23.2044 68.4571 23.542 68.4395 24.061 68.4205V68.0753H21.0103ZM44.3989 68.0753V68.4205C45.1553 68.5304 45.156 68.5657 45.1658 69.9057V73.3302C45.156 74.0048 45.0277 74.0767 44.3989 74.1591V74.5054H47.0688V74.1591C46.5688 74.1225 46.3862 74.0316 46.341 73.6402C46.3227 73.4485 46.3134 72.7286 46.3134 72.5003V69.9057C46.3134 68.5303 46.3131 68.4944 47.0689 68.4205V68.0753H44.3989ZM70.3686 68.121V68.4663C70.8332 68.5115 71.0329 68.5396 71.0964 68.8393C71.1428 69.0402 71.1518 69.7501 71.1518 70.0059L71.1508 72.2657C71.1508 72.4385 71.1415 73.2121 71.1317 73.3665C71.1146 74.0667 71.0319 74.1314 70.3676 74.1954V74.5503H73.0309V74.1954C72.3661 74.1314 72.2842 74.0667 72.2659 73.3665L72.2698 71.5312H72.9814C73.6999 71.5312 74.0822 71.6 74.128 72.3191H74.4389V70.1967H74.128C74.0913 70.8897 73.9011 70.9579 73.1178 70.9579H72.2698L72.2708 68.7316C72.4991 68.7035 72.6265 68.6943 73.0368 68.6943C74.2938 68.6943 74.6987 68.6886 74.8672 69.6959H75.1868L75.0857 68.1211L70.3686 68.121ZM66.7581 68.5751C67.2942 68.5586 67.7025 68.8848 67.9095 69.1064C68.382 69.6107 68.6135 70.3219 68.6392 71.1515C68.6648 71.9885 68.5713 72.629 68.1165 73.3274C67.7191 73.9305 67.2069 74.1116 66.843 74.122C66.4798 74.122 65.9634 73.9581 65.5477 73.3665C65.0721 72.6827 64.9591 72.0467 64.9591 71.2078C64.9591 70.3788 65.1677 69.6582 65.6249 69.1398C65.8258 68.9127 66.2221 68.5751 66.7581 68.5751ZM35.6671 68.6419C36.8509 68.6419 37.2267 69.2873 37.1877 70.0346C37.1608 70.5492 36.6074 71.1235 35.8761 71.1211C35.6942 71.1211 35.4479 71.0926 35.2751 71.0572V68.6791C35.4027 68.6516 35.5029 68.6419 35.6671 68.6419ZM61.0532 77.1926C60.571 77.5522 60.2539 77.7172 59.1245 78.0884L59.2752 78.323L56.6444 85.5429C56.272 86.5612 55.9412 86.7691 54.9216 86.8106V87.3343H58.9318V86.8106C58.3396 86.7831 57.6088 86.7422 57.6088 86.0523C57.6088 85.8472 57.6638 85.6532 57.7327 85.4456L58.0341 84.6052H61.4643L61.7562 85.5982C61.8112 85.7771 61.8668 85.9843 61.8668 86.1772C61.8668 86.7145 61.3566 86.7691 60.6955 86.8106V87.3343H68.9257V86.8106C67.4373 86.6586 67.327 86.6037 67.327 85.0335V79.9875L71.1711 84.7292C71.6126 85.2677 72.0525 85.8177 72.4932 86.369L73.3623 87.4583H73.9413L74.0786 79.9493C74.0921 78.3657 74.189 78.1434 75.25 78.1312V77.6066H71.4192V78.1312C72.9625 78.1861 73.0038 78.2683 73.0179 79.811V84.1645L70.3031 80.8021C68.8702 79.0249 68.6909 78.764 67.8783 77.6066H64.9575V78.1312C65.6052 78.1861 65.8254 78.2822 66.3626 78.7779C66.3485 79.7834 66.3073 85.5558 66.1699 86.2049C66.07 86.7033 65.7923 86.7599 65.1531 86.7972C64.204 86.6776 64.0176 86.3744 63.6441 85.2395L61.4949 78.6252C61.2745 77.9366 61.2468 77.8544 61.0532 77.1926ZM50.5059 77.3577C47.8637 77.3577 45.7556 79.3828 45.7556 82.496C45.7556 85.0442 47.3555 87.5812 50.7034 87.5812C52.6131 87.5812 53.692 86.9051 54.4484 86.4374V85.7068C54.4735 83.8606 54.4733 83.6126 55.3537 83.5576V83.0339H51.4351V83.5576C52.5145 83.6688 52.6818 83.6954 52.7257 84.9341C52.7404 85.3627 52.7007 85.5965 52.5273 85.8585C52.4773 85.9134 51.9187 86.6712 50.8399 86.6712C48.9425 86.6712 47.8399 84.7566 47.8399 82.5247C47.8399 79.7268 49.2535 78.2942 50.9524 78.2942C51.9317 78.2942 52.5522 78.7004 52.8745 79.0172C53.6059 79.748 53.9044 80.4159 54.1022 80.9946L54.499 80.926L54.4245 77.8802L53.9171 78.4592C53.1235 77.9769 52.1677 77.3577 50.5059 77.3577ZM25.5418 77.372C22.2568 77.372 20.6467 79.9633 20.6467 82.5943C20.6467 85.4331 22.5456 87.5955 25.4771 87.5955C28.1609 87.5955 29.1949 85.8728 29.6266 85.1707L29.0476 84.7319C28.5372 85.4621 27.8988 86.4118 26.1974 86.4118C23.9453 86.4118 22.8063 84.4 22.8063 82.2633C22.8063 79.7414 24.1944 78.3104 25.9484 78.3104C26.9691 78.3104 27.6891 78.943 27.9907 79.2604C28.6188 79.9491 28.8674 80.4029 29.0371 80.9688L29.4692 80.8848L29.4168 77.9364L28.749 78.5431C28.1868 78.1035 27.2695 77.372 25.5418 77.372ZM3.13392 77.6066V78.1313C4.0014 78.1435 4.19471 78.2133 4.19471 79.1767C4.19471 79.5216 4.19534 79.9902 4.18133 80.3071L4.04399 84.385C4.02934 84.9222 3.98846 85.7358 3.96097 85.9971C3.90544 86.6588 3.602 86.7692 2.81627 86.8107V87.3344H6.19306V86.8107C5.15953 86.7283 5.04935 86.5489 5.04935 85.5983L5.12187 79.8778L8.24587 87.4581H9.10055L12.5031 79.976V84.8687C12.489 86.6739 12.4895 86.7284 11.263 86.8108V87.3345H15.5202V86.8108C14.7486 86.7418 14.4734 86.6042 14.4184 85.8875C14.3769 85.3912 14.3631 84.5652 14.3631 83.9034V79.8942C14.3497 78.3783 14.3627 78.2542 15.5202 78.1858V77.6068H12.5583L9.22446 84.9918L6.19204 77.6068L3.13392 77.6066ZM16.4738 77.6066V78.1313C17.6173 78.2961 17.6169 78.3508 17.6309 80.3758V85.5554C17.6169 86.5762 17.425 86.6868 16.4739 86.8107V87.3344H20.5126V86.8107C19.755 86.7558 19.4789 86.6168 19.4099 86.0247C19.3825 85.7359 19.3689 84.6469 19.3689 84.302V80.3758C19.3689 78.2958 19.3692 78.2412 20.5126 78.1313V77.6066H16.4738ZM30.3451 77.6066V78.1313C31.1027 78.199 31.3777 78.2819 31.4326 78.8601C31.4741 79.1634 31.4746 79.7974 31.4746 80.4311V84.51C31.4746 84.8536 31.4746 85.1981 31.4612 85.543C31.4612 86.4789 31.4471 86.7143 30.3451 86.8107V87.3344H34.5089V86.8107C33.2549 86.6733 33.2275 86.6735 33.2135 84.6473V82.8635C34.0541 82.8214 34.7096 82.7949 35.5496 82.7949C36.3487 82.7949 36.99 82.8361 37.7617 82.8635V84.6473C37.7617 85.3506 37.7615 85.7223 37.734 85.9971C37.6504 86.6735 37.389 86.699 36.411 86.8107V87.3344H40.6291V86.8107C39.9123 86.7417 39.623 86.646 39.554 86.1344C39.5125 85.8468 39.4987 84.6201 39.4987 84.2343V80.1278C39.4987 78.2822 39.4984 78.2687 40.6291 78.1312V77.6066H36.411V78.1313C37.7339 78.2546 37.7476 78.323 37.7617 80.1001V81.7341C36.9344 81.775 36.2798 81.8028 35.4532 81.8028C34.6406 81.8028 34.0541 81.775 33.2135 81.7341V80.39C33.2135 79.8107 33.2275 79.0942 33.2965 78.778C33.3929 78.2407 33.6957 78.2136 34.5089 78.1312V77.6066L30.3451 77.6066ZM41.4341 77.6066V78.1313C42.5788 78.2961 42.579 78.3508 42.593 80.3758V85.5554C42.579 86.5762 42.3858 86.6868 41.4341 86.8107V87.3344H45.4776V86.8107C44.7206 86.7558 44.4458 86.6168 44.3768 86.0247C44.3487 85.7359 44.3339 84.6469 44.3339 84.302V80.3758C44.3339 78.2958 44.3342 78.2412 45.4776 78.1313V77.6066H41.4341ZM59.824 79.5259L61.189 83.558H58.3941L59.824 79.5259Z" fill="black"/>
</svg>
