<svg width="390" height="130" viewBox="0 0 390 130" fill="none" xmlns="http://www.w3.org/2000/svg">
<path d="M61.8228 64.1198V77.8194H53.3461C47.5238 77.8194 44.2701 80.3025 44.2701 84.6692V85.5255H57.0279V97.5126H44.2701V128.336H29.7999V97.5126H23.3782V85.5255H29.7999C30.5705 71.0552 38.8759 64.1198 55.6579 64.1198H61.8228ZM57.6105 106.931C57.6105 93.574 66.6009 84.6692 80.1293 84.6692C93.6576 84.6692 102.648 93.574 102.648 106.931C102.648 120.288 93.6576 129.192 80.1293 129.192C66.6009 129.192 57.6105 120.288 57.6105 106.931ZM72.1664 106.931C72.1664 111.982 75.3344 115.493 80.1293 115.493C84.9241 115.493 88.0922 111.982 88.0922 106.931C88.0922 101.879 84.9241 98.3688 80.1293 98.3688C75.3344 98.3688 72.1664 101.879 72.1664 106.931ZM104.877 106.931C104.877 93.574 113.867 84.6692 127.395 84.6692C140.924 84.6692 149.914 93.574 149.914 106.931C149.914 120.288 140.924 129.192 127.395 129.192C113.867 129.192 104.877 120.288 104.877 106.931ZM119.433 106.931C119.433 111.982 122.601 115.493 127.395 115.493C132.19 115.493 135.358 111.982 135.358 106.931C135.358 101.879 132.19 98.3688 127.395 98.3688C122.601 98.3688 119.433 101.879 119.433 106.931ZM152.143 105.989C152.143 92.9746 159.079 84.6692 169.867 84.6692C177.402 84.6692 181.854 89.036 181.854 93.9165V94.6871L182.625 94.7727V64.1198H197.181V106.931C197.181 120.288 188.19 129.192 174.662 129.192C161.133 129.192 152.143 121.144 152.143 105.989ZM166.699 106.931C166.699 111.982 169.867 115.493 174.662 115.493C179.457 115.493 182.625 111.982 182.625 106.931C182.625 101.879 179.457 98.3688 174.662 98.3688C169.867 98.3688 166.699 101.879 166.699 106.931Z" fill="#F2E9D9"/>
<path d="M0 22.2619C0 8.90474 8.99037 0 22.5187 0C36.0471 0 45.0375 8.90474 45.0375 22.2619C45.0375 35.619 36.0471 44.5238 22.5187 44.5238C8.99037 44.5238 0 35.619 0 22.2619ZM14.5559 22.2619C14.5559 27.3136 17.7239 30.8242 22.5187 30.8242C27.3136 30.8242 30.4816 27.3136 30.4816 22.2619C30.4816 17.2102 27.3136 13.6996 22.5187 13.6996C17.7239 13.6996 14.5559 17.2102 14.5559 22.2619ZM92.3038 23.2037C92.3038 36.2184 85.3684 44.5238 74.5799 44.5238C67.1308 44.5238 62.6784 40.157 62.6784 35.2765V34.4203H61.8222V65.0732H47.2663V22.2619C47.2663 8.90474 56.3423 0 69.7851 0C83.3134 0 92.3038 8.04852 92.3038 23.2037ZM77.8336 22.2619C77.8336 17.2102 74.5799 13.6996 69.7851 13.6996C64.9902 13.6996 61.8222 17.2102 61.8222 22.2619C61.8222 27.3136 64.9902 30.8242 69.7851 30.8242C74.5799 30.8242 77.8336 27.3136 77.8336 22.2619ZM138.797 25.1731H109.172C109.6 28.5123 112.511 31.4235 117.734 31.4235C120.988 31.4235 122.957 30.396 123.813 28.9405H138.797C136.914 39.6433 128.951 44.5238 117.135 44.5238C103.606 44.5238 94.6163 35.619 94.6163 22.2619C94.6163 8.90474 103.606 0 117.135 0C128.951 0 138.797 7.53478 138.797 22.005V25.1731ZM109.6 16.8677H123.556C123.556 13.8709 121.073 11.131 117.477 11.131C113.367 11.131 110.627 14.299 109.6 16.8677ZM155.686 20.8919V43.6675H141.13V21.5769C141.13 8.64789 149.778 0 163.135 0C176.064 0 184.712 8.64789 184.712 21.5769V43.6675H170.156V20.8919C170.156 16.6108 167.245 13.6996 162.878 13.6996C158.597 13.6996 155.686 16.6108 155.686 20.8919Z" fill="#F2E9D9"/>
<path d="M235.886 42.5912C250.013 42.5912 255.236 51.239 255.236 64.168V86.2587H240.595V63.4831C240.595 59.2019 237.769 56.2908 233.488 56.2908C229.036 56.2908 226.21 59.2019 226.21 63.4831V86.2587H211.655V63.4831C211.655 59.2019 208.743 56.2908 204.377 56.2908C200.095 56.2908 197.184 59.2019 197.184 63.4831V86.2587H182.628V64.168C182.628 51.239 187.851 42.5912 201.979 42.5912C212.682 42.5912 218.504 48.9272 218.504 57.3182H219.361C219.361 48.9272 225.183 42.5912 235.886 42.5912ZM257.488 65.7949C257.488 50.6397 266.478 42.5912 280.007 42.5912C293.535 42.5912 302.525 51.4959 302.525 64.853V86.2587H287.97V77.0114H287.199V77.8677C287.199 82.7481 282.747 87.1149 275.212 87.1149C264.423 87.1149 257.488 78.8095 257.488 65.7949ZM272.044 64.853C272.044 69.9048 275.212 73.4153 280.007 73.4153C284.802 73.4153 287.97 69.9048 287.97 64.853C287.97 59.8013 284.802 56.2908 280.007 56.2908C275.212 56.2908 272.044 59.8013 272.044 64.853ZM349.875 65.7949C349.875 78.8095 342.94 87.1149 332.152 87.1149C324.702 87.1149 320.25 82.7481 320.25 77.8677V77.0114H319.394V107.664H304.838V64.853C304.838 51.4959 313.914 42.5912 327.357 42.5912C340.885 42.5912 349.875 50.6397 349.875 65.7949ZM335.405 64.853C335.405 59.8013 332.152 56.2908 327.357 56.2908C322.562 56.2908 319.394 59.8013 319.394 64.853C319.394 69.9048 322.562 73.4153 327.357 73.4153C332.152 73.4153 335.405 69.9048 335.405 64.853ZM351.766 56.5476C351.766 46.8723 359.301 42.5055 371.202 42.5055C377.538 42.5055 382.59 43.1905 387.214 44.903V57.3182C384.217 56.2908 377.881 54.1502 370.431 54.1502C367.435 54.1502 366.407 54.8352 366.407 55.9483C366.407 60.9144 389.012 57.6607 389.012 73.0728C389.012 82.8338 381.477 87.2005 369.575 87.2005C363.239 87.2005 358.187 86.5155 353.564 84.7175V72.3022C356.561 73.4153 362.897 75.5558 370.346 75.5558C373.343 75.5558 374.456 74.7852 374.456 73.7578C374.456 68.7917 351.766 71.9597 351.766 56.5476Z" fill="#F2E9D9"/>
</svg>
